<?xml version="1.0" encoding="iso-8859-1"?>
<!-- Generator: Adobe Illustrator 19.0.0, SVG Export Plug-In . SVG Version: 6.00 Build 0)  -->
<svg version="1.1" id="Layer_1" xmlns="http://www.w3.org/2000/svg" xmlns:xlink="http://www.w3.org/1999/xlink" x="0px" y="0px"
	 viewBox="0 0 512 512" style="enable-background:new 0 0 512 512;" xml:space="preserve">
<path style="fill:#B90B27;" d="M256,329.209c-31.829,0-57.721-25.894-57.721-57.721s25.894-57.721,57.721-57.721
	s57.721,25.894,57.721,57.721S287.829,329.209,256,329.209z"/>
<path style="fill:#8A091F;" d="M256,329.209c0-28.743,0-87.176,0-115.444c31.829,0,57.721,25.894,57.721,57.721
	S287.829,329.209,256,329.209z"/>
<path style="fill:#BABABE;" d="M256,415.318c-66.603,0-129.479-13.918-177.046-39.188C28.039,349.08,0,311.918,0,271.487
	s28.039-77.594,78.954-104.643c47.567-25.272,110.444-39.189,177.046-39.189s129.479,13.918,177.046,39.189
	C483.961,193.893,512,231.057,512,271.487s-28.039,77.592-78.954,104.643C385.479,401.401,322.603,415.318,256,415.318z
	 M256,161.047c-61.239,0-118.551,12.532-161.38,35.286C55.136,217.309,33.391,244,33.391,271.487s21.744,54.177,61.229,75.154
	c42.829,22.754,100.143,35.286,161.38,35.286s118.551-12.532,161.38-35.286c39.484-20.975,61.229-47.666,61.229-75.154
	s-21.744-54.178-61.229-75.154C374.551,173.578,317.239,161.047,256,161.047z"/>
<path style="fill:#CBCBCE;" d="M173.966,505.078c-16.709,0.001-32.199-3.941-45.966-11.89
	c-35.014-20.215-53.178-63.079-51.147-120.696c1.899-53.83,21.284-115.241,54.586-172.921l0,0
	c33.301-57.68,76.792-105.174,122.46-133.732c48.884-30.568,95.086-36.27,130.1-16.055s53.178,63.08,51.147,120.696
	c-1.899,53.83-21.284,115.242-54.585,172.921S303.768,448.575,258.1,477.134C228.437,495.685,199.755,505.077,173.966,505.078z
	 M337.859,71.288c-19.394,0-42.02,7.708-66.254,22.862c-41.12,25.715-80.629,69.083-111.248,122.116l0,0
	C129.737,269.3,111.934,325.2,110.225,373.67c-1.575,44.682,10.667,76.858,34.472,90.602c8.587,4.958,18.503,7.413,29.446,7.414
	c19.394,0.001,42.02-7.707,66.254-22.862c41.12-25.715,80.629-69.083,111.249-122.116c30.619-53.033,48.423-108.934,50.131-157.403
	c1.575-44.682-10.667-76.859-34.472-90.603C358.717,73.745,348.801,71.288,337.859,71.288z"/>
<path style="fill:#DCDBDE;" d="M338.034,505.078c-25.79,0-54.469-9.392-84.134-27.943c-45.668-28.56-89.159-76.053-122.462-133.732
	c-26.807-46.431-44.642-95.264-51.578-141.221c-7.044-46.675-2.343-86.835,13.594-116.137l29.333,15.953
	c-26.322,48.398-10.873,140.802,37.57,224.709c30.62,53.033,70.128,96.402,111.249,122.116
	c37.908,23.704,71.895,29.192,95.699,15.448c23.805-13.744,36.047-45.921,34.472-90.602c-1.71-48.469-19.513-104.369-50.133-157.403
	c-48.446-83.91-120.747-143.491-175.823-144.89l0.848-33.38c33.346,0.847,70.476,16.856,107.378,46.294
	c36.334,28.986,69.708,68.85,96.515,115.282c33.302,57.68,52.687,119.091,54.586,172.921
	c2.031,57.618-16.132,100.481-51.147,120.696C370.235,501.137,354.74,505.078,338.034,505.078z"/>
<circle style="fill:#79D5DE;" cx="136.348" cy="64.244" r="57.322"/>
<path style="fill:#3D6C6F;" d="M193.67,64.244c0,31.658-25.663,57.322-57.322,57.322c0-41.471,0-83.57,0-114.643
	C168.006,6.922,193.67,32.585,193.67,64.244z"/>
<g>
</g>
<g>
</g>
<g>
</g>
<g>
</g>
<g>
</g>
<g>
</g>
<g>
</g>
<g>
</g>
<g>
</g>
<g>
</g>
<g>
</g>
<g>
</g>
<g>
</g>
<g>
</g>
<g>
</g>
</svg>
