<?xml version="1.0" encoding="iso-8859-1"?>
<!-- Generator: Adobe Illustrator 19.0.0, SVG Export Plug-In . SVG Version: 6.00 Build 0)  -->
<svg version="1.1" id="Capa_1" xmlns="http://www.w3.org/2000/svg" xmlns:xlink="http://www.w3.org/1999/xlink" x="0px" y="0px"
	 viewBox="0 0 382.953 382.953" style="enable-background:new 0 0 382.953 382.953;" xml:space="preserve">
<g id="XMLID_906_">
	<path id="XMLID_907_" style="fill:#00D7DF;" d="M296.438,197.472c10.053-10.348,18.944-20.622,26.393-30.567
		c31.8-42.459,27.586-66.287,18.452-78.798c-5.129-7.027-15.549-15.402-36.057-15.402c-15.601,0-35.322,4.857-57.349,13.736
		c-1.139-4.519-2.352-8.886-3.639-13.083c-15.543-50.72-37.272-61.366-52.763-61.366s-37.22,10.646-52.763,61.366
		c-1.286,4.197-2.5,8.564-3.639,13.083c-22.027-8.879-41.747-13.736-57.349-13.736c-20.508,0-30.927,8.375-36.056,15.401
		c-9.135,12.512-13.349,36.339,18.451,78.799c7.449,9.946,16.34,20.22,26.393,30.567c-10.053,10.348-18.944,20.622-26.393,30.567
		c-31.799,42.46-27.586,66.287-18.452,78.799c5.129,7.027,15.549,15.401,36.056,15.401c15.601,0,35.322-4.857,57.35-13.736
		c1.139,4.519,2.352,8.886,3.639,13.083c15.543,50.719,37.272,61.366,52.763,61.366s37.22-10.647,52.763-61.366
		c1.286-4.198,2.5-8.565,3.639-13.084c22.027,8.878,41.747,13.736,57.349,13.737c0.001,0,0.002,0,0.004,0
		c20.504,0,30.923-8.375,36.053-15.401c9.134-12.512,13.347-36.338-18.452-78.799C315.382,218.093,306.49,207.82,296.438,197.472z
		 M305.226,106.705c5.332,0,7.918,1.015,8.578,1.469c0.814,2.412-0.356,15.424-20.431,41.291
		c-6.2,7.988-13.452,16.234-21.562,24.568c-4.13-3.653-8.381-7.292-12.742-10.904c-0.909-14.827-2.409-29.146-4.455-42.676
		C276.264,111.132,293.798,106.705,305.226,106.705z M211.896,225.443c-6.936,5.063-13.748,9.787-20.42,14.205
		c-6.672-4.418-13.484-9.141-20.42-14.205c-4.74-3.46-9.384-6.972-13.926-10.519c-0.187-5.76-0.285-11.582-0.285-17.451
		c0-5.869,0.098-11.691,0.285-17.452c4.542-3.548,9.186-7.059,13.926-10.52c6.936-5.063,13.748-9.787,20.42-14.205
		c6.671,4.418,13.484,9.141,20.42,14.205c4.74,3.46,9.384,6.972,13.926,10.52c0.187,5.76,0.285,11.583,0.285,17.452
		c0,5.868-0.098,11.691-0.285,17.451C221.28,218.47,216.636,221.983,211.896,225.443z M170.168,86.867
		c9.061-31.488,18.888-40.096,21.308-40.851c2.42,0.755,12.247,9.363,21.308,40.851c1.3,4.519,2.511,9.257,3.631,14.183
		c-8.161,4.256-16.499,8.953-24.939,14.042c-8.441-5.088-16.779-9.785-24.94-14.042C167.657,96.124,168.868,91.386,170.168,86.867z
		 M69.148,108.174c0.66-0.453,3.245-1.469,8.578-1.469c11.428,0,28.963,4.427,50.613,13.748
		c-2.046,13.529-3.546,27.849-4.455,42.676c-4.361,3.613-8.611,7.251-12.742,10.904c-8.11-8.334-15.363-16.58-21.562-24.568
		C69.504,123.598,68.334,110.586,69.148,108.174z M77.725,288.239c-5.331,0-7.917-1.015-8.577-1.469
		c-0.814-2.411,0.355-15.423,20.43-41.29c6.199-7.988,13.452-16.236,21.563-24.57c4.13,3.653,8.381,7.292,12.742,10.904
		c0.909,14.827,2.409,29.146,4.455,42.676C106.688,283.813,89.153,288.239,77.725,288.239z M212.784,308.077
		c-9.061,31.489-18.888,40.097-21.308,40.852c-2.42-0.755-12.247-9.363-21.308-40.852c-1.301-4.519-2.511-9.257-3.632-14.183
		c8.161-4.257,16.499-8.953,24.94-14.042c8.44,5.088,16.779,9.785,24.939,14.042C215.295,298.819,214.085,303.557,212.784,308.077z
		 M313.804,286.772c-0.66,0.453-3.243,1.468-8.574,1.468h-0.002c-11.429,0-28.964-4.427-50.615-13.749
		c2.046-13.529,3.546-27.849,4.455-42.675c4.361-3.613,8.612-7.251,12.742-10.904c8.111,8.334,15.364,16.581,21.563,24.57
		C313.449,271.347,314.618,284.359,313.804,286.772z"/>
	<path id="XMLID_916_" style="fill:#00969B;" d="M296.438,197.472c10.053-10.348,18.944-20.622,26.393-30.567
		c31.8-42.459,27.586-66.287,18.452-78.798c-5.129-7.027-15.549-15.402-36.057-15.402c-15.601,0-35.322,4.857-57.349,13.736
		c-1.139-4.519-2.352-8.886-3.639-13.083c-15.543-50.72-37.272-61.366-52.763-61.366v34.024c2.42,0.755,12.247,9.363,21.308,40.851
		c1.3,4.519,2.511,9.257,3.631,14.183c-8.161,4.256-16.499,8.953-24.939,14.042v40.205c6.671,4.418,13.484,9.141,20.42,14.205
		c4.74,3.46,9.384,6.972,13.926,10.52c0.187,5.76,0.285,11.583,0.285,17.452c0,5.868-0.098,11.691-0.285,17.451
		c-4.542,3.547-9.186,7.059-13.926,10.519c-6.936,5.063-13.748,9.787-20.42,14.205v40.205l0,0
		c8.44,5.088,16.779,9.785,24.939,14.042c-1.12,4.926-2.331,9.664-3.631,14.183c-9.061,31.489-18.888,40.097-21.308,40.852v34.024
		c15.491,0,37.22-10.647,52.763-61.366c1.286-4.198,2.5-8.565,3.639-13.084c22.027,8.878,41.747,13.736,57.349,13.737
		c0.001,0,0.002,0,0.004,0c20.504,0,30.923-8.375,36.053-15.401c9.134-12.512,13.347-36.338-18.452-78.799
		C315.382,218.093,306.49,207.82,296.438,197.472z M305.226,106.705c5.332,0,7.918,1.015,8.578,1.469
		c0.814,2.412-0.356,15.424-20.431,41.291c-6.2,7.988-13.452,16.234-21.562,24.568c-4.13-3.653-8.381-7.292-12.742-10.904
		c-0.909-14.827-2.409-29.146-4.455-42.676C276.264,111.132,293.798,106.705,305.226,106.705z M313.804,286.772
		c-0.66,0.453-3.243,1.468-8.574,1.468h-0.002c-11.429,0-28.964-4.427-50.615-13.749c2.046-13.529,3.546-27.849,4.455-42.675
		c4.361-3.613,8.612-7.251,12.742-10.904c8.111,8.334,15.364,16.581,21.563,24.57C313.449,271.347,314.618,284.359,313.804,286.772z
		"/>
	<circle id="XMLID_920_" style="fill:#FFEB99;" cx="50.619" cy="97.143" r="29.143"/>
	<circle id="XMLID_921_" style="fill:#FFDA44;" cx="191.476" cy="29.143" r="29.143"/>
	<circle id="XMLID_922_" style="fill:#FFCD00;" cx="332.333" cy="301.143" r="29.143"/>
	<path id="XMLID_923_" style="fill:#FFCD00;" d="M191.476,0v58.286c16.095,0,29.143-13.048,29.143-29.143S207.571,0,191.476,0z"/>
</g>
<g>
</g>
<g>
</g>
<g>
</g>
<g>
</g>
<g>
</g>
<g>
</g>
<g>
</g>
<g>
</g>
<g>
</g>
<g>
</g>
<g>
</g>
<g>
</g>
<g>
</g>
<g>
</g>
<g>
</g>
</svg>
